:SAMPLES-PER-SECOND 30
:FULLY-SPECIFIED
:DEGREES
324
root  18.0939 39.1329 -1.22583 -8.11647 -21.7095 5.23023
RightUpLeg  -13.8308 15.0142 -26.6613
RightLeg  17.8339 4.9598 1.54713
RightFoot  -2.72936 -0.449506 5.76446
RightToes  0.00048216 0.542163 -0.142577
Spine  16.6874 0.810332 -6.75754
Spine1  3.17138 0.123982 -1.37073
HEad  -6.77329 3.12198 -4.1094
LeftShoulder1  6.70444 -10.7537 -40.7246
LeftArm  -19.6376 26.7918 -26.6288
LeftForeArm  25.6901 -47.1706 -10.2208
LeftHand  -0.25398 0.0180481 5.50724
RightShoulder  4.84471 8.12951 35.6708
RightArm  -7.9249 -21.5817 33.7582
RightForeArm  4.58153 11.626 6.72611
RightHand  -0.737441 0.19505 -15.3416
LeftUpLeg  -2.30817 -6.89774 -7.89777
LeftLeg  23.4762 -3.80816 -1.46581
LeftFoot  -14.0018 0.178734 4.11761
LeftToes  1.06244e-005 4.65856e-005 -8.18505e-006
325
root  16.7442 38.9714 -1.13 -7.86411 -16.6761 5.2492
RightUpLeg  -11.9178 15.6573 -26.7774
RightLeg  15.6719 11.4381 3.08593
RightFoot  -4.42041 -0.552079 8.58422
RightToes  0.00048216 0.542163 -0.142577
Spine  16.6887 1.12037 -6.70302
Spine1  3.26062 0.440309 -1.3803
HEad  -6.98948 0.0624081 -3.98669
LeftShoulder1  6.67075 -10.6772 -40.7392
LeftArm  -20.7186 27.0078 -25.8078
LeftForeArm  25.6664 -46.1739 -9.83718
LeftHand  -0.25398 0.0180481 5.50724
RightShoulder  4.86601 8.18951 35.6401
RightArm  -7.31027 -20.99 34.1546
RightForeArm  3.56263 11.9102 6.84475
RightHand  -0.706148 -0.164775 -15.6613
LeftUpLeg  -2.37177 -11.0156 -6.68305
LeftLeg  25.163 -5.04954 -2.2368
LeftFoot  -15.4596 0.172814 2.21534
LeftToes  1.06244e-005 4.65856e-005 -8.18505e-006
326
root  15.2987 38.887 -1.0357 -7.08672 -11.9574 5.23073
RightUpLeg  -10.2006 11.6239 -25.1218
RightLeg  15.547 15.3267 3.82277
RightFoot  -5.11144 -0.67666 11.7601
RightToes  0.00048216 0.542163 -0.142577
Spine  16.1456 1.60061 -7.00082
Spine1  3.42781 0.825711 -0.776595
HEad  -7.09048 -2.82439 -3.57593
LeftShoulder1  6.55141 -10.4652 -40.6049
LeftArm  -21.7788 27.6911 -24.7219
LeftForeArm  25.3461 -45.5103 -9.61237
LeftHand  -0.25398 0.0180481 5.50724
RightShoulder  4.90275 8.29945 35.5651
RightArm  -5.60384 -20.2243 34.6325
RightForeArm  2.63633 12.9284 6.90332
RightHand  -0.677384 -0.489193 -15.9743
LeftUpLeg  -2.76078 -14.3704 -4.83667
LeftLeg  25.6634 -6.5529 -3.07284
LeftFoot  -16.3109 0.118868 0.473919
LeftToes  1.06244e-005 4.65856e-005 -8.18505e-006
327
root  13.8356 38.9329 -0.968595 -6.1737 -7.58165 4.88
RightUpLeg  -8.78615 8.66598 -22.7536
RightLeg  16.3654 12.6328 3.35153
RightFoot  -6.17489 -0.637155 13.0844
RightToes  0.00048216 0.542163 -0.142577
Spine  15.8308 1.91074 -6.29839
Spine1  3.53849 1.3439 -0.832996
HEad  -7.42671 -5.51101 -2.6177
LeftShoulder1  6.3818 -10.179 -40.3599
LeftArm  -22.861 28.4289 -23.1226
LeftForeArm  25.1576 -45.1508 -9.49433
LeftHand  -0.25398 0.0180481 5.50724
RightShoulder  4.97562 8.40592 35.8008
RightArm  -2.79524 -19.1244 35.1942
RightForeArm  0.869959 14.6242 6.8212
RightHand  -0.787486 0.00336998 -16.8936
LeftUpLeg  -2.82247 -17.6328 -2.3149
LeftLeg  24.4545 -8.38596 -3.80353
LeftFoot  -16.4662 0.051481 -1.05535
LeftToes  1.06244e-005 4.65856e-005 -8.18505e-006
328
root  12.4388 39.1008 -0.949102 -5.38011 -3.79722 3.80649
RightUpLeg  -8.04342 7.13854 -19.6365
RightLeg  17.8229 8.32188 2.55353
RightFoot  -7.3954 -0.460291 11.8378
RightToes  0.00048216 0.542163 -0.142577
Spine  16.1535 1.91764 -3.30144
Spine1  3.4721 2.20752 -2.59387
HEad  -8.12179 -8.17248 -1.34315
LeftShoulder1  6.27449 -9.9765 -40.2683
LeftArm  -24.5846 28.8325 -21.4281
LeftForeArm  25.7528 -44.595 -9.25345
LeftHand  -0.25398 0.0180481 5.50724
RightShoulder  5.03852 8.4454 36.1803
RightArm  1.33854 -17.6989 35.7881
RightForeArm  -2.56976 17.0495 6.45234
RightHand  -0.998637 0.992142 -18.2108
LeftUpLeg  -2.72154 -20.4001 1.09858
LeftLeg  22.2011 -10.0826 -4.17137
LeftFoot  -15.5518 -0.0203144 -3.17407
LeftToes  1.06244e-005 4.65856e-005 -8.18505e-006
329
root  11.1206 39.336 -0.964618 -4.26829 -0.156626 2.40858
RightUpLeg  -8.07884 3.6994 -16.4066
RightLeg  18.9912 7.34188 2.5079
RightFoot  -7.52299 -0.37212 9.65668
RightToes  0.00048216 0.542163 -0.142577
Spine  16.4434 1.72654 0.553085
Spine1  3.05193 3.0704 -4.97287
HEad  -8.85161 -10.856 -0.234428
LeftShoulder1  6.25201 -9.90777 -40.3343
LeftArm  -27.341 29.2553 -20.6643
LeftForeArm  26.6921 -43.5224 -8.81599
LeftHand  -0.25398 0.0180481 5.50724
RightShoulder  5.05413 8.49598 36.1343
RightArm  6.29092 -16.485 36.0818
RightForeArm  -6.53456 20.5314 5.73782
RightHand  -1.07841 1.33813 -18.6587
LeftUpLeg  -3.83084 -20.7622 5.00717
LeftLeg  20.3836 -9.80329 -3.69297
LeftFoot  -13.049 -0.00136863 -5.55949
LeftToes  1.06244e-005 4.65856e-005 -8.18505e-006
330
root  9.85063 39.6193 -0.98013 -2.50989 4.33181 1.57075
RightUpLeg  -8.24603 -2.70897 -13.9237
RightLeg  18.6945 8.53599 2.76572
RightFoot  -6.7194 -0.365808 7.91744
RightToes  0.00048216 0.542163 -0.142577
Spine  16.0593 1.49866 2.61962
Spine1  2.29853 3.26182 -5.9594
HEad  -9.33742 -13.3905 0.523201
LeftShoulder1  6.23088 -9.87729 -40.2852
LeftArm  -30.3553 30.2171 -21.3416
LeftForeArm  26.651 -42.162 -8.36589
LeftHand  -0.25398 0.0180481 5.50724
RightShoulder  5.02253 8.60477 35.5092
RightArm  8.96155 -15.9444 35.5871
RightForeArm  -7.68182 24.9112 5.62264
RightHand  -0.979104 0.889812 -18.1366
LeftUpLeg  -6.63984 -17.0039 7.98514
LeftLeg  19.7822 -6.147 -2.11767
LeftFoot  -9.10462 0.164934 -6.12835
LeftToes  1.06244e-005 4.65856e-005 -8.18505e-006
